<svg width="130" height="52" viewBox="0 0 130 52" fill="none" xmlns="http://www.w3.org/2000/svg">
<path fill-rule="evenodd" clip-rule="evenodd" d="M0.427734 38.6671H36.3382V39.8567H0.427734V38.6671Z" fill="#116F44"/>
<path fill-rule="evenodd" clip-rule="evenodd" d="M42.6763 38.6667H125.406V39.8563H42.6763V38.6667Z" fill="#116F44"/>
<path fill-rule="evenodd" clip-rule="evenodd" d="M16.1078 13.7363C13.7025 15.0365 8.32632 16.8307 8.9699 18.5794C9.17792 20.4451 19.1242 16.9087 18.1165 23.234C17.629 26.2959 16.2248 28.7792 14.1315 31.035C10.6471 34.7924 6.61661 35.709 2.07254 33.9733C-0.475773 32.9202 0.323826 28.7207 4.45184 28.5581C6.74662 28.2201 9.14542 27.8626 11.5377 26.7769C13.1109 26.0618 14.8661 25.1582 15.6332 23.533C16.9139 20.8482 12.0318 21.7063 8.83988 22.4474C7.24068 22.8244 4.04879 23.9556 2.88514 22.3109C1.27944 20.0421 5.25144 15.3615 6.62311 13.6973C8.35232 11.617 10.5301 9.49128 13.644 7.255C17.9735 4.64168 20.7559 11.5845 16.1078 13.7363ZM27.8417 22.4994C25.6185 22.2784 23.6552 22.7854 21.8935 23.8646C19.7547 25.1712 17.434 27.687 18.227 30.4369C18.7341 32.1791 20.7104 32.9722 22.9791 32.7057C25.5535 32.4001 28.4983 30.7424 30.0975 27.557C31.4172 30.2874 32.6588 32.8617 33.79 34.8184C35.3697 33.6353 35.9027 32.4001 35.5387 30.4369C34.3295 23.9361 33.2049 20.2436 32.1193 18.2674C31.3002 16.7462 29.2264 15.186 27.3737 15.7191C25.2089 16.3496 26.197 18.8914 26.8016 20.2241C27.1462 20.9847 27.4907 21.7388 27.8417 22.4994ZM23.9088 27.375C22.9596 28.4866 23.1742 29.3577 24.4483 29.5203C26.2165 29.0262 27.9978 26.7899 29.0314 25.1192C27.3217 25.4703 25.6185 26.2309 23.9088 27.375ZM51.6672 33.4403C51.7322 35.228 54.2935 35.306 54.404 33.4988C54.5536 30.2679 54.7031 20.0616 54.8591 16.8307C62.7576 14.887 54.9631 13.4048 55.0606 12.3321L55.7107 5.22675C55.8667 1.05973 50.3605 1.5733 50.3605 4.99272L51.0691 13.2552C49.7105 13.5283 49.912 17.2922 51.3682 16.9477C51.4657 20.3606 51.5697 30.0273 51.6672 33.4403ZM40.8824 25.2362C40.8629 26.2049 41.0189 27.6025 40.9929 28.5711C49.5804 23.8776 46.2065 18.0528 40.8824 25.2362ZM38.36 47.6965C37.5734 37.7763 36.7868 27.8626 35.9938 17.9423C35.8832 15.316 39.9202 14.5489 40.7263 17.0322C40.8499 17.8838 40.9734 18.7354 41.0904 19.5805C42.059 18.8264 43.0276 18.1309 43.9897 17.7863C45.732 17.1557 47.3767 18.0788 48.3323 19.6C49.4764 21.4008 49.0409 23.7996 47.8252 26.0358C46.2585 28.9027 43.3917 31.49 40.8889 32.1986C41.1294 36.9897 40.8499 41.9953 41.0904 46.7864C41.1229 49.8093 38.5616 49.9068 38.36 47.6965ZM66.385 22.5124C64.1682 22.2979 62.205 22.8049 60.4433 23.8776C58.3045 25.1842 55.9837 27.7065 56.7833 30.4499C57.2904 32.1921 59.2601 32.9852 61.5289 32.7187C64.0967 32.4196 67.0481 30.7554 68.6473 27.57C69.967 30.3004 71.2086 32.8812 72.3398 34.8379C73.9195 33.6548 74.4525 32.4196 74.082 30.4499C72.8793 23.9491 71.7547 20.2631 70.6756 18.2804C69.85 16.7657 67.7762 15.2055 65.9235 15.7386C63.7587 16.3626 64.7403 18.9044 65.3514 20.2371C65.6959 20.9977 66.0405 21.7583 66.385 22.5124ZM62.4585 27.3945C61.5094 28.5061 61.7239 29.3773 62.9981 29.5398C64.7598 29.0392 66.5475 26.8029 67.5812 25.1322C65.8715 25.4898 64.1682 26.2439 62.4585 27.3945ZM74.2835 18.8589C73.4839 17.9813 74.9076 16.5902 75.8892 17.2532C76.6173 18.3064 76.9943 19.2425 77.7289 20.2956C78.561 17.2922 79.7767 15.0625 81.2849 14.1459C82.624 13.3203 83.6512 13.6778 84.6068 14.8284C85.6924 16.1481 85.985 18.1439 85.4714 20.8092C84.9968 22.1419 83.9242 22.1939 83.5211 20.9847C83.2156 20.0096 82.9101 19.0345 82.6045 18.0593C82.182 17.6498 81.8569 17.7863 81.6294 18.4624C81.0508 22.5579 80.4658 26.6534 79.8872 30.7489C79.6922 32.1271 79.8352 34.8964 77.8004 34.8184C76.5653 34.7729 76.3183 33.6483 76.3248 32.4586C76.3313 30.6449 76.4808 28.8117 76.5133 26.9915C76.5588 24.5016 76.6368 23.6955 75.5122 21.5763C75.1481 20.8937 74.8361 20.1526 74.2835 18.8589ZM87.9612 17.5263C88.1497 16.0831 91.2311 16.0181 91.5171 17.5263C91.4261 22.7854 91.3286 28.0446 91.2311 33.3102C91.0426 35.514 88.8518 35.1695 88.7088 33.1347C88.4553 27.9341 88.2082 22.7269 87.9612 17.5263ZM87.8767 12.7547L89.0273 11.8056C89.4889 11.422 90.178 11.487 90.5615 11.9486L91.5171 13.0992C91.9007 13.5608 91.8357 14.2499 91.3676 14.6334L90.2235 15.5825C89.7619 15.9661 89.0663 15.9011 88.6893 15.4395L87.7337 14.2954C87.3501 13.8273 87.4151 13.1382 87.8767 12.7547ZM103.108 20.2956C101.444 21.1927 97.7449 22.4279 98.187 23.6305C98.33 24.9112 105.182 22.4799 104.486 26.8354C104.148 28.9482 103.186 30.6579 101.743 32.2116C99.3441 34.7989 96.5683 35.4295 93.4349 34.2399C91.6797 33.5118 92.2322 30.6189 95.0731 30.5084C96.6528 30.2744 98.304 30.0208 99.9552 29.2797C101.041 28.7857 102.243 28.1616 102.777 27.05C103.654 25.1972 100.293 25.7888 98.096 26.3024C96.9973 26.5494 94.8 27.336 93.9939 26.2049C92.8888 24.6382 95.6191 21.4138 96.5683 20.2696C97.7579 18.8329 99.2596 17.3703 101.411 15.8296C104.389 14.0288 106.306 18.8134 103.108 20.2956ZM105.741 5.40227C105.708 2.72394 110.551 2.48991 110.721 5.88333C110.233 12.7677 109.745 19.652 109.258 26.5364C110.434 22.8894 111.611 19.249 112.781 15.602C113.223 13.5478 116.448 13.5868 116.428 15.7256C116.272 19.9966 117.215 23.8191 118.157 27.8691C118.508 29.3773 118.814 30.5214 118.599 32.0686C118.248 34.6494 117.325 35.1565 115.824 33.5833C113.717 31.4965 112.944 27.8561 112.781 23.5005C111.572 27.024 110.356 30.5474 109.141 34.0708C108.497 35.54 106.228 34.7989 106.228 32.2441C106.066 23.299 105.903 14.3474 105.741 5.40227ZM119.906 17.5263C120.095 16.0831 123.176 16.0181 123.462 17.5263C123.371 22.7854 123.274 28.0446 123.176 33.3102C122.988 35.514 120.797 35.1695 120.654 33.1347C120.407 27.9341 120.153 22.7269 119.906 17.5263ZM119.822 12.7547L120.972 11.8056C121.434 11.422 122.129 11.487 122.506 11.9486L123.462 13.0992C123.846 13.5608 123.781 14.2499 123.319 14.6334L122.168 15.5825C121.707 15.9661 121.018 15.9011 120.634 15.4395L119.679 14.2954C119.302 13.8273 119.367 13.1382 119.822 12.7547Z" fill="#116F44"/>
<path fill-rule="evenodd" clip-rule="evenodd" d="M78.9245 2.60032C76.6362 4.74559 65.9554 1.20265 58.4664 8.43805C62.5749 -5.87673 79.8801 4.8366 81.8823 0C75.7846 23.3249 60.9367 5.6297 55.3525 13.7037C61.9054 1.38467 73.2038 7.09888 78.9245 2.60032Z" fill="#116F44"/>
<path d="M8.13115 51.3758C8.17015 51.4993 8.19616 51.5968 8.20916 51.6683C8.21566 51.7398 8.20266 51.7983 8.16365 51.8308C8.12465 51.8699 8.05964 51.8894 7.96213 51.9024C7.86462 51.9089 7.7346 51.9089 7.56558 51.9089C7.39006 51.9089 7.25354 51.9089 7.15603 51.9024C7.05852 51.9024 6.98051 51.8894 6.9285 51.8699C6.87649 51.8568 6.84399 51.8373 6.81799 51.8048C6.79848 51.7788 6.77898 51.7463 6.77248 51.7008L6.33043 50.3552H3.80811L3.38556 51.6618C3.37256 51.7138 3.35306 51.7528 3.32705 51.7853C3.30755 51.8178 3.26855 51.8438 3.22304 51.8634C3.17103 51.8829 3.09952 51.8959 3.00851 51.9024C2.9175 51.9089 2.80049 51.9089 2.65097 51.9089C2.48845 51.9089 2.36493 51.9089 2.28042 51.8959C2.18941 51.8829 2.1244 51.8634 2.0919 51.8243C2.0594 51.7788 2.04639 51.7268 2.05289 51.6553C2.0659 51.5773 2.0919 51.4863 2.1309 51.3628L4.19166 45.4211C4.21116 45.3625 4.23717 45.317 4.26967 45.2845C4.29567 45.2455 4.33468 45.2195 4.39969 45.2C4.45819 45.1805 4.5427 45.1675 4.64672 45.161C4.75723 45.1545 4.89375 45.1545 5.07577 45.1545C5.2773 45.1545 5.43982 45.1545 5.55683 45.161C5.68035 45.1675 5.77136 45.1805 5.84287 45.2C5.90787 45.2195 5.95338 45.2455 5.98588 45.2845C6.01189 45.3235 6.03789 45.3755 6.05739 45.4406L8.13115 51.3758ZM5.05627 46.4612H5.04977L4.12015 49.3085H5.99888L5.05627 46.4612ZM18.0254 49.341V51.6943C18.0254 51.7268 18.0124 51.7593 17.9929 51.7853C17.9669 51.8178 17.9279 51.8373 17.8759 51.8568C17.8304 51.8699 17.7588 51.8829 17.6678 51.8959C17.5833 51.9089 17.4728 51.9089 17.3428 51.9089C17.2063 51.9089 17.0958 51.9089 17.0113 51.8959C16.9267 51.8829 16.8552 51.8699 16.8032 51.8568C16.7447 51.8373 16.7057 51.8178 16.6862 51.7853C16.6667 51.7593 16.6602 51.7268 16.6602 51.6943V49.341L14.827 45.6941C14.762 45.5641 14.7165 45.4666 14.697 45.395C14.6775 45.3235 14.6905 45.2715 14.7295 45.2325C14.7685 45.2 14.84 45.174 14.9505 45.1675C15.0545 45.161 15.204 45.1545 15.3926 45.1545C15.5486 45.1545 15.6786 45.161 15.7696 45.1675C15.8671 45.174 15.9386 45.187 15.9971 45.2065C16.0491 45.226 16.0881 45.252 16.1206 45.278C16.1401 45.3105 16.1661 45.3495 16.1922 45.4015L16.9397 47.0463C17.0113 47.2023 17.0828 47.3713 17.1543 47.5468C17.2258 47.7223 17.2973 47.9044 17.3753 48.0994H17.3818C17.4468 47.9109 17.5183 47.7353 17.5833 47.5533C17.6548 47.3778 17.7198 47.2153 17.7848 47.0528L18.5194 45.4211C18.5389 45.3625 18.5584 45.317 18.5844 45.2845C18.6105 45.252 18.6495 45.226 18.7015 45.2065C18.7535 45.187 18.825 45.174 18.916 45.1675C19.0005 45.161 19.124 45.1545 19.2735 45.1545C19.4686 45.1545 19.6181 45.161 19.7286 45.1675C19.8391 45.174 19.9106 45.2 19.9496 45.2325C19.9886 45.2715 20.0016 45.3235 19.9821 45.4015C19.9626 45.4731 19.9171 45.5706 19.8586 45.6941L18.0254 49.341ZM33.3998 49.3865C33.3998 49.7961 33.3413 50.1601 33.2178 50.4852C33.1008 50.8102 32.9252 51.0833 32.6912 51.3108C32.4507 51.5318 32.1646 51.7008 31.8201 51.8178C31.4755 51.9414 31.079 51.9999 30.6304 51.9999C30.2079 51.9999 29.8308 51.9414 29.4993 51.8373C29.1613 51.7333 28.8817 51.5773 28.6477 51.3628C28.4202 51.1483 28.2446 50.8817 28.1211 50.5632C27.9976 50.2446 27.9391 49.8676 27.9391 49.4451V45.3755C27.9391 45.3365 27.9456 45.304 27.9716 45.278C27.9911 45.252 28.0236 45.2325 28.0756 45.213C28.1276 45.1935 28.1991 45.1805 28.2902 45.174C28.3747 45.161 28.4852 45.1545 28.6152 45.1545C28.7452 45.1545 28.8557 45.161 28.9402 45.174C29.0247 45.1805 29.0963 45.1935 29.1483 45.213C29.2003 45.2325 29.2328 45.252 29.2588 45.278C29.2848 45.304 29.2913 45.3365 29.2913 45.3755V49.328C29.2913 49.5946 29.3238 49.8221 29.3888 50.0171C29.4538 50.2121 29.5513 50.3747 29.6748 50.5047C29.7983 50.6282 29.9414 50.7257 30.1104 50.7907C30.2859 50.8557 30.4744 50.8817 30.6825 50.8817C30.897 50.8817 31.092 50.8492 31.261 50.7842C31.43 50.7192 31.5731 50.6282 31.6901 50.4982C31.8071 50.3747 31.8981 50.2186 31.9631 50.0366C32.0216 49.8481 32.0541 49.6401 32.0541 49.406V45.3755C32.0541 45.3365 32.0671 45.304 32.0866 45.278C32.1061 45.252 32.1451 45.2325 32.1971 45.213C32.2491 45.1935 32.3207 45.1805 32.4052 45.174C32.4962 45.161 32.6067 45.1545 32.7367 45.1545C32.8667 45.1545 32.9707 45.161 33.0552 45.174C33.1398 45.1805 33.2113 45.1935 33.2633 45.213C33.3153 45.2325 33.3478 45.252 33.3673 45.278C33.3933 45.304 33.3998 45.3365 33.3998 45.3755V49.3865ZM49.3463 51.7073C49.3463 51.7398 49.3333 51.7723 49.3203 51.7983C49.3073 51.8243 49.2748 51.8503 49.2228 51.8634C49.1707 51.8829 49.0992 51.8959 48.9952 51.9024C48.8977 51.9089 48.7612 51.9089 48.5922 51.9089C48.4427 51.9089 48.3321 51.9089 48.2411 51.9024C48.1566 51.8959 48.0916 51.8829 48.0396 51.8634C47.9876 51.8438 47.9551 51.8178 47.9356 51.7918C47.9161 51.7593 47.8966 51.7268 47.8836 51.6813L47.279 50.1861C47.2075 50.0171 47.136 49.8676 47.0645 49.7311C46.9995 49.6011 46.9215 49.4906 46.837 49.406C46.7524 49.315 46.6549 49.25 46.5379 49.2045C46.4339 49.159 46.3039 49.1395 46.1544 49.1395H45.7318V51.6943C45.7318 51.7268 45.7188 51.7593 45.6993 51.7853C45.6733 51.8178 45.6408 51.8373 45.5888 51.8568C45.5368 51.8699 45.4653 51.8829 45.3808 51.8959C45.2963 51.9089 45.1858 51.9089 45.0557 51.9089C44.9192 51.9089 44.8152 51.9089 44.7242 51.8959C44.6332 51.8829 44.5682 51.8699 44.5162 51.8568C44.4642 51.8373 44.4252 51.8178 44.4057 51.7853C44.3862 51.7593 44.3797 51.7268 44.3797 51.6943V45.6161C44.3797 45.4666 44.4187 45.356 44.4902 45.2845C44.5682 45.2195 44.6657 45.187 44.7762 45.187H46.5119C46.6874 45.187 46.8305 45.1935 46.9475 45.2C47.058 45.2065 47.162 45.213 47.2595 45.2195C47.526 45.2585 47.7666 45.3235 47.9811 45.4211C48.1956 45.5121 48.3842 45.6356 48.5337 45.7851C48.6832 45.9346 48.7937 46.1101 48.8782 46.3182C48.9562 46.5197 48.9952 46.7537 48.9952 47.0202C48.9952 47.2413 48.9627 47.4493 48.9107 47.6313C48.8522 47.8198 48.7677 47.9824 48.6572 48.1254C48.5467 48.2684 48.4102 48.3984 48.2476 48.5024C48.0851 48.6064 47.9031 48.6975 47.6951 48.7625C47.7926 48.808 47.8901 48.8665 47.9746 48.938C48.0656 49.003 48.1501 49.0875 48.2281 49.1915C48.3061 49.289 48.3777 49.3995 48.4492 49.5231C48.5142 49.6531 48.5857 49.7961 48.6507 49.9521L49.2163 51.2718C49.2683 51.4083 49.3008 51.4993 49.3138 51.5643C49.3333 51.6228 49.3463 51.6683 49.3463 51.7073ZM47.5846 47.1633C47.5846 46.9422 47.539 46.7537 47.435 46.6042C47.3375 46.4482 47.1685 46.3442 46.941 46.2792C46.876 46.2662 46.798 46.2532 46.7069 46.2402C46.6224 46.2272 46.4989 46.2272 46.3429 46.2272H45.7318V48.1189H46.4274C46.6224 48.1189 46.785 48.0994 46.9345 48.0474C47.0775 48.0019 47.201 47.9369 47.2985 47.8524C47.396 47.7743 47.4675 47.6703 47.513 47.5533C47.5585 47.4363 47.5846 47.3063 47.5846 47.1633ZM60.6642 51.6423C60.6447 51.7008 60.6252 51.7463 60.5992 51.7853C60.5667 51.8243 60.5277 51.8503 60.4627 51.8699C60.4041 51.8894 60.3196 51.9024 60.2091 51.9024C60.1051 51.9089 59.9621 51.9089 59.7931 51.9089C59.6566 51.9089 59.533 51.9089 59.4355 51.9089C59.338 51.9089 59.2535 51.9024 59.1885 51.8959C59.117 51.8894 59.0585 51.8764 59.0195 51.8634C58.974 51.8503 58.9415 51.8373 58.909 51.8113C58.883 51.7918 58.857 51.7658 58.8439 51.7398C58.8244 51.7073 58.8114 51.6748 58.7984 51.6293L56.8092 45.6941C56.7702 45.5706 56.7442 45.4731 56.7312 45.4015C56.7247 45.3235 56.7442 45.2715 56.7832 45.2325C56.8287 45.2 56.9002 45.174 57.0042 45.1675C57.1082 45.161 57.2513 45.1545 57.4398 45.1545C57.5958 45.1545 57.7193 45.161 57.8103 45.1675C57.9013 45.174 57.9728 45.187 58.0183 45.2C58.0639 45.2195 58.1029 45.2455 58.1224 45.278C58.1419 45.317 58.1549 45.356 58.1744 45.408L59.7996 50.5697H59.8061L61.4053 45.4341C61.4183 45.3755 61.4378 45.33 61.4573 45.291C61.4768 45.2585 61.5093 45.226 61.5613 45.2065C61.6133 45.187 61.6848 45.174 61.7758 45.1675C61.8733 45.161 61.9968 45.1545 62.1594 45.1545C62.3219 45.1545 62.4454 45.161 62.5299 45.174C62.6209 45.1805 62.6794 45.2065 62.7119 45.2455C62.7444 45.2845 62.7574 45.343 62.7444 45.4146C62.7314 45.4861 62.7054 45.5836 62.6664 45.7071L60.6642 51.6423ZM72.0861 51.6943C72.0861 51.7268 72.0731 51.7593 72.0471 51.7853C72.0276 51.8178 71.9886 51.8373 71.9366 51.8568C71.8846 51.8699 71.8196 51.8829 71.7351 51.8959C71.644 51.9089 71.5335 51.9089 71.397 51.9089C71.267 51.9089 71.163 51.9089 71.072 51.8959C70.981 51.8829 70.9159 51.8699 70.8639 51.8568C70.8119 51.8373 70.7729 51.8178 70.7534 51.7853C70.7274 51.7593 70.7144 51.7268 70.7144 51.6943V45.3755C70.7144 45.3365 70.7274 45.304 70.7534 45.278C70.7729 45.252 70.8119 45.2325 70.8639 45.213C70.9159 45.1935 70.9875 45.1805 71.072 45.174C71.163 45.161 71.267 45.1545 71.397 45.1545C71.5335 45.1545 71.644 45.161 71.7351 45.174C71.8196 45.1805 71.8846 45.1935 71.9366 45.213C71.9886 45.2325 72.0276 45.252 72.0471 45.278C72.0731 45.304 72.0861 45.3365 72.0861 45.3755V51.6943ZM86.0303 46.2272C86.0303 46.3247 86.0303 46.4157 86.0173 46.4872C86.0108 46.5587 85.9978 46.6172 85.9848 46.6562C85.9653 46.7017 85.9523 46.7342 85.9263 46.7472C85.9068 46.7667 85.8743 46.7732 85.8483 46.7732C85.8028 46.7732 85.7313 46.7407 85.6273 46.6822C85.5298 46.6172 85.3997 46.5522 85.2307 46.4807C85.0682 46.4092 84.8667 46.3377 84.6392 46.2792C84.4116 46.2141 84.1451 46.1816 83.8396 46.1816C83.5145 46.1816 83.222 46.2402 82.9619 46.3507C82.7019 46.4612 82.4744 46.6237 82.2924 46.8252C82.1038 47.0333 81.9608 47.2803 81.8633 47.5663C81.7593 47.8589 81.7138 48.1709 81.7138 48.5219C81.7138 48.9055 81.7658 49.2435 81.8633 49.5361C81.9673 49.8286 82.1103 50.0691 82.2924 50.2707C82.4744 50.4657 82.6954 50.6152 82.9489 50.7127C83.209 50.8167 83.495 50.8622 83.8006 50.8622C83.9566 50.8622 84.1061 50.8427 84.2491 50.8102C84.4051 50.7777 84.5416 50.7257 84.6652 50.6542V49.094H83.404C83.339 49.094 83.2935 49.055 83.2545 48.977C83.222 48.899 83.2025 48.769 83.2025 48.5804C83.2025 48.4894 83.209 48.4049 83.2155 48.3399C83.2285 48.2749 83.2415 48.2229 83.2545 48.1839C83.274 48.1449 83.2935 48.1124 83.3195 48.0929C83.3455 48.0734 83.3715 48.0669 83.404 48.0669H85.6598C85.7183 48.0669 85.7638 48.0734 85.8093 48.0929C85.8483 48.1124 85.8873 48.1449 85.9198 48.1839C85.9523 48.2164 85.9783 48.2684 85.9978 48.3204C86.0108 48.3724 86.0238 48.4374 86.0238 48.5024V51.1743C86.0238 51.2783 86.0043 51.3693 85.9653 51.4473C85.9328 51.5188 85.8613 51.5838 85.7443 51.6293C85.6338 51.6748 85.4973 51.7203 85.3282 51.7658C85.1657 51.8178 84.9902 51.8568 84.8147 51.8894C84.6392 51.9284 84.4571 51.9544 84.2751 51.9674C84.0931 51.9869 83.9111 51.9999 83.729 51.9999C83.196 51.9999 82.7149 51.9219 82.2924 51.7658C81.8698 51.6098 81.5123 51.3888 81.2197 51.0963C80.9272 50.8102 80.6997 50.4527 80.5501 50.0301C80.3941 49.6141 80.3161 49.1395 80.3161 48.6064C80.3161 48.0539 80.3941 47.5663 80.5631 47.1308C80.7257 46.6887 80.9597 46.3182 81.2652 46.0126C81.5708 45.7071 81.9348 45.4796 82.3639 45.317C82.7929 45.1545 83.274 45.07 83.8006 45.07C84.0866 45.07 84.3531 45.0895 84.5937 45.1285C84.8277 45.174 85.0357 45.2195 85.2112 45.278C85.3932 45.3365 85.5363 45.395 85.6533 45.4601C85.7703 45.5251 85.8548 45.5836 85.9003 45.6356C85.9458 45.6811 85.9848 45.7526 85.9978 45.8371C86.0238 45.9281 86.0303 46.0581 86.0303 46.2272ZM97.0817 49.341V51.6943C97.0817 51.7268 97.0687 51.7593 97.0427 51.7853C97.0232 51.8178 96.9842 51.8373 96.9322 51.8568C96.8802 51.8699 96.8152 51.8829 96.7242 51.8959C96.6331 51.9089 96.5291 51.9089 96.3926 51.9089C96.2626 51.9089 96.1521 51.9089 96.0611 51.8959C95.9766 51.8829 95.9116 51.8699 95.8531 51.8568C95.801 51.8373 95.762 51.8178 95.7425 51.7853C95.723 51.7593 95.71 51.7268 95.71 51.6943V49.341L93.8833 45.6941C93.8183 45.5641 93.7728 45.4666 93.7533 45.395C93.7338 45.3235 93.7468 45.2715 93.7858 45.2325C93.8248 45.2 93.8963 45.174 94.0068 45.1675C94.1108 45.161 94.2604 45.1545 94.4489 45.1545C94.6049 45.1545 94.7284 45.161 94.8259 45.1675C94.9234 45.174 94.9949 45.187 95.0535 45.2065C95.1055 45.226 95.1445 45.252 95.1705 45.278C95.1965 45.3105 95.2225 45.3495 95.2485 45.4015L95.9961 47.0463C96.0676 47.2023 96.1391 47.3713 96.2106 47.5468C96.2821 47.7223 96.3536 47.9044 96.4251 48.0994H96.4381C96.5031 47.9109 96.5681 47.7353 96.6396 47.5533C96.7112 47.3778 96.7762 47.2153 96.8412 47.0528L97.5758 45.4211C97.5953 45.3625 97.6148 45.317 97.6408 45.2845C97.6668 45.252 97.7058 45.226 97.7578 45.2065C97.8098 45.187 97.8813 45.174 97.9723 45.1675C98.0568 45.161 98.1803 45.1545 98.3299 45.1545C98.5249 45.1545 98.6744 45.161 98.7849 45.1675C98.8954 45.174 98.9669 45.2 99.0059 45.2325C99.0449 45.2715 99.0579 45.3235 99.0319 45.4015C99.0124 45.4731 98.9734 45.5706 98.9084 45.6941L97.0817 49.341ZM111.578 51.3758C111.618 51.4993 111.644 51.5968 111.657 51.6683C111.663 51.7398 111.65 51.7983 111.618 51.8308C111.578 51.8699 111.507 51.8894 111.409 51.9024C111.318 51.9089 111.182 51.9089 111.013 51.9089C110.837 51.9089 110.701 51.9089 110.603 51.9024C110.506 51.9024 110.428 51.8894 110.376 51.8699C110.324 51.8568 110.291 51.8373 110.272 51.8048C110.246 51.7788 110.233 51.7463 110.22 51.7008L109.778 50.3552H107.255L106.833 51.6618C106.82 51.7138 106.8 51.7528 106.781 51.7853C106.755 51.8178 106.722 51.8438 106.67 51.8634C106.618 51.8829 106.553 51.8959 106.456 51.9024C106.365 51.9089 106.248 51.9089 106.098 51.9089C105.942 51.9089 105.819 51.9089 105.728 51.8959C105.637 51.8829 105.572 51.8634 105.539 51.8243C105.507 51.7788 105.494 51.7268 105.507 51.6553C105.513 51.5773 105.539 51.4863 105.578 51.3628L107.646 45.4211C107.665 45.3625 107.685 45.317 107.717 45.2845C107.743 45.2455 107.789 45.2195 107.847 45.2C107.906 45.1805 107.99 45.1675 108.101 45.161C108.205 45.1545 108.348 45.1545 108.523 45.1545C108.725 45.1545 108.887 45.1545 109.004 45.161C109.128 45.1675 109.225 45.1805 109.29 45.2C109.355 45.2195 109.407 45.2455 109.433 45.2845C109.466 45.3235 109.492 45.3755 109.511 45.4406L111.578 51.3758ZM108.504 46.4612L107.568 49.3085H109.446L108.504 46.4612ZM125.152 51.4018C125.152 51.4798 125.139 51.5513 125.113 51.6163C125.087 51.6813 125.048 51.7333 125.003 51.7723C124.957 51.8113 124.899 51.8438 124.834 51.8634C124.769 51.8829 124.71 51.8894 124.645 51.8894H124.06C123.943 51.8894 123.839 51.8764 123.748 51.8568C123.664 51.8308 123.579 51.7853 123.507 51.7203C123.429 51.6618 123.358 51.5708 123.293 51.4668C123.221 51.3563 123.143 51.2133 123.059 51.0442L121.395 47.9109C121.297 47.7223 121.2 47.5208 121.102 47.3063C120.998 47.0918 120.914 46.8837 120.836 46.6822H120.823C120.836 46.9292 120.849 47.1763 120.855 47.4233C120.862 47.6703 120.868 47.9239 120.868 48.1839V51.6878C120.868 51.7203 120.855 51.7528 120.836 51.7853C120.816 51.8113 120.784 51.8308 120.738 51.8503C120.693 51.8699 120.628 51.8829 120.55 51.8959C120.472 51.9089 120.368 51.9089 120.244 51.9089C120.121 51.9089 120.023 51.9089 119.945 51.8959C119.861 51.8829 119.802 51.8699 119.757 51.8503C119.711 51.8373 119.679 51.8113 119.666 51.7853C119.646 51.7528 119.64 51.7203 119.64 51.6878V45.6746C119.64 45.5121 119.685 45.3885 119.783 45.3105C119.874 45.226 119.991 45.187 120.127 45.187H120.855C120.992 45.187 121.102 45.2 121.193 45.2195C121.278 45.2455 121.362 45.278 121.427 45.33C121.499 45.382 121.57 45.4536 121.629 45.5446C121.694 45.6356 121.752 45.7526 121.817 45.8891L123.124 48.3334C123.195 48.4829 123.273 48.6259 123.345 48.769C123.416 48.912 123.494 49.055 123.559 49.198C123.624 49.341 123.696 49.4841 123.761 49.6206C123.826 49.7636 123.891 49.9001 123.95 50.0366H123.956C123.95 49.7961 123.937 49.5426 123.93 49.2825C123.93 49.016 123.924 48.769 123.924 48.5284V45.3885C123.924 45.356 123.937 45.3235 123.956 45.2975C123.976 45.2715 124.015 45.2455 124.06 45.2195C124.112 45.2 124.171 45.187 124.255 45.1805C124.333 45.1675 124.437 45.1675 124.561 45.1675C124.678 45.1675 124.775 45.1675 124.853 45.1805C124.931 45.187 124.996 45.2 125.035 45.2195C125.081 45.2455 125.113 45.2715 125.126 45.2975C125.146 45.3235 125.152 45.356 125.152 45.3885V51.4018Z" fill="#6F6B67"/>
<path d="M126.992 8.10699C127.44 8.10699 127.882 8.22401 128.311 8.45154C128.74 8.68557 129.079 9.01711 129.319 9.44616C129.56 9.88171 129.677 10.3303 129.677 10.7983C129.677 11.2664 129.56 11.7084 129.326 12.1375C129.085 12.5665 128.753 12.8981 128.331 13.1321C127.902 13.3726 127.453 13.4897 126.992 13.4897C126.524 13.4897 126.075 13.3726 125.646 13.1321C125.224 12.8981 124.886 12.5665 124.651 12.1375C124.411 11.7084 124.294 11.2664 124.294 10.7983C124.294 10.3303 124.417 9.88171 124.658 9.44616C124.899 9.01711 125.237 8.68557 125.666 8.45154C126.095 8.22401 126.537 8.10699 126.992 8.10699ZM126.992 8.54905C126.608 8.54905 126.244 8.64656 125.88 8.84159C125.523 9.03661 125.243 9.31614 125.042 9.67369C124.84 10.0377 124.743 10.4083 124.743 10.7983C124.743 11.1884 124.84 11.5589 125.035 11.9165C125.237 12.2675 125.516 12.547 125.874 12.7486C126.225 12.9436 126.602 13.0476 126.992 13.0476C127.375 13.0476 127.746 12.9436 128.103 12.7486C128.461 12.547 128.74 12.2675 128.936 11.9165C129.137 11.5589 129.235 11.1884 129.235 10.7983C129.235 10.4083 129.131 10.0377 128.929 9.67369C128.727 9.31614 128.448 9.03661 128.09 8.84159C127.733 8.64656 127.362 8.54905 126.992 8.54905ZM125.809 12.287V9.39415H126.803C127.141 9.39415 127.388 9.42016 127.544 9.47216C127.694 9.52417 127.817 9.61518 127.908 9.7517C127.999 9.88822 128.045 10.0247 128.045 10.1743C128.045 10.3888 127.967 10.5708 127.817 10.7268C127.661 10.8828 127.46 10.9739 127.213 10.9934C127.317 11.0324 127.395 11.0844 127.46 11.1429C127.577 11.2599 127.72 11.4484 127.889 11.7214L128.24 12.287H127.674L127.414 11.832C127.213 11.4679 127.05 11.2469 126.92 11.1559C126.836 11.0909 126.712 11.0584 126.55 11.0584H126.277V12.287H125.809ZM126.277 10.6553H126.842C127.115 10.6553 127.297 10.6163 127.395 10.5383C127.492 10.4538 127.544 10.3498 127.544 10.2133C127.544 10.1287 127.518 10.0572 127.473 9.98573C127.427 9.92072 127.362 9.86871 127.278 9.83621C127.193 9.80371 127.037 9.7842 126.803 9.7842H126.277V10.6553Z" fill="#6F6B67"/>
</svg>
